<svg xmlns="http://www.w3.org/2000/svg" version="1.1" xmlns:xlink="http://www.w3.org/1999/xlink" xmlns:svgjs="http://svgjs.dev/svgjs" width="2000" height="505" viewBox="0 0 2000 505"><g transform="matrix(1,0,0,1,-1.2121212121212466,-0.3861545470519445)"><svg viewBox="0 0 396 100" data-background-color="#ffffff" preserveAspectRatio="xMidYMid meet" height="505" width="2000" xmlns="http://www.w3.org/2000/svg" xmlns:xlink="http://www.w3.org/1999/xlink"><g id="tight-bounds" transform="matrix(1,0,0,1,0.2400000000000091,0.07646624694098136)"><svg viewBox="0 0 395.52 99.84706750611805" height="99.84706750611805" width="395.52"><g><svg viewBox="0 0 548.1053965348297 138.3664960767616" height="99.84706750611805" width="395.52"><g transform="matrix(1,0,0,1,152.5853965348297,39.06815701246519)"><svg viewBox="0 0 395.52 60.230182051831214" height="60.230182051831214" width="395.52"><g id="textblocktransform"><svg viewBox="0 0 395.52 60.230182051831214" height="60.230182051831214" width="395.52" id="textblock"><g><svg viewBox="0 0 395.52 60.230182051831214" height="60.230182051831214" width="395.52"><g transform="matrix(1,0,0,1,0,0)"><svg width="395.52" viewBox="2.4 -35.15 233.43 35.55" height="60.230182051831214" data-palette-color="#91e7eb"><path d="M32.65-17L32.65-17Q32.65-9.05 28.58-4.33 24.5 0.4 17.55 0.4L17.55 0.4Q10.7 0.4 6.55-4.35 2.4-9.1 2.4-17L2.4-17Q2.4-24.95 6.48-29.65 10.55-34.35 17.5-34.35L17.5-34.35Q24.6-34.35 28.63-29.68 32.65-25 32.65-17ZM6.65-17L6.65-17Q6.65-10.75 9.63-7.1 12.6-3.45 17.55-3.45L17.55-3.45Q22.7-3.45 25.53-7.05 28.35-10.65 28.35-17 28.35-23.35 25.5-26.95 22.65-30.55 17.5-30.55L17.5-30.55Q12.4-30.55 9.53-26.93 6.65-23.3 6.65-17ZM63.3-33.7L63.3 0 59.25 0 59.25-15.25 42.9-15.25 42.9 0 38.85 0 38.85-33.7 42.9-33.7 42.9-18.9 59.25-18.9 59.25-33.7 63.3-33.7ZM89.7-3.45L89.7 0 69.05 0 69.05-3.35Q84.55-15.05 84.55-22.85L84.55-22.85Q84.55-25.95 82.75-27.63 80.95-29.3 77.9-29.3L77.9-29.3Q73.95-29.3 70.1-26.35L70.1-26.35 70.1-30.3Q73.65-33.05 78.25-33.05L78.25-33.05Q82.65-33.05 85.65-30.5 88.65-27.95 88.65-23.25L88.65-23.25Q88.65-14.4 74.5-3.45L74.5-3.45 89.7-3.45ZM105.54-16.65L119.09 0 113.84 0 100.54-16.65 113.39-33.7 118.39-33.7 105.54-16.65ZM99.74-33.7L99.74 0 95.69 0 95.69-33.7 99.74-33.7ZM148.84 0L148.84 0 136.54 0 136.54-33.7 146.69-33.7Q151.89-33.7 155.01-31.3 158.14-28.9 158.14-24.85L158.14-24.85Q158.14-21.95 156.51-19.83 154.89-17.7 152.34-17.15L152.34-17.15Q155.14-16.7 157.11-14.63 159.09-12.55 159.09-9L159.09-9Q159.09-4.95 156.41-2.48 153.74 0 148.84 0ZM146.69-30.25L146.69-30.25 140.59-30.25 140.59-18.75 145.99-18.75Q150.04-18.75 151.99-20.45 153.94-22.15 153.94-24.85L153.94-24.85Q153.94-27.2 152.11-28.73 150.29-30.25 146.69-30.25ZM147.49-15.3L147.49-15.3 140.59-15.3 140.59-3.45 148.24-3.45Q151.44-3.45 153.16-4.93 154.89-6.4 154.89-9.25 154.89-12.1 152.96-13.7 151.04-15.3 147.49-15.3ZM172.64-3.05L172.64-3.05Q175.34-3.05 176.94-4.58 178.54-6.1 178.54-8.45L178.54-8.45 178.54-11.7 174.14-11.7Q170.94-11.7 169.34-10.45 167.74-9.2 167.74-7.3 167.74-5.4 168.99-4.23 170.24-3.05 172.64-3.05ZM178.59 0L178.59-3Q176.64 0.25 171.49 0.25L171.49 0.25Q167.94 0.25 165.76-1.85 163.59-3.95 163.59-7.15L163.59-7.15Q163.59-10.8 166.36-12.83 169.14-14.85 173.94-14.85L173.94-14.85 178.54-14.85 178.54-16.15Q178.54-19.15 177.19-20.68 175.84-22.2 172.64-22.2L172.64-22.2Q168.59-22.2 165.44-20.05L165.44-20.05 165.44-24Q168.29-25.75 172.94-25.75L172.94-25.75Q182.49-25.75 182.49-16.05L182.49-16.05 182.49 0 178.59 0ZM209.48-17.45L209.48 0 205.53 0 205.53-16.4Q205.53-19.2 204.11-20.68 202.68-22.15 200.38-22.15L200.38-22.15Q197.53-22.15 195.46-19.95 193.38-17.75 193.38-13.85L193.38-13.85 193.38 0 189.48 0 189.48-25.35 193.38-25.35 193.38-20.95Q195.63-25.7 201.38-25.7L201.38-25.7Q205.08-25.7 207.28-23.45 209.48-21.2 209.48-17.45L209.48-17.45ZM220.38-35.15L220.38 0 216.48 0 216.48-35.15 220.38-35.15ZM235.53-25.35L225.53-13.3 235.83 0 231.08 0 220.88-13.3 230.83-25.35 235.53-25.35Z" opacity="1" transform="matrix(1,0,0,1,0,0)" fill="#91e7eb" class="undefined-text-0" data-fill-palette-color="primary" id="text-0"></path></svg></g></svg></g></svg></g></svg></g><g><svg viewBox="0 0 138.3664960767616 138.3664960767616" height="138.3664960767616" width="138.3664960767616"><g><svg></svg></g><g id="icon-0"><svg viewBox="0 0 138.3664960767616 138.3664960767616" height="138.3664960767616" width="138.3664960767616"><g><rect width="125.81101772905544" height="125.81101772905544" x="6.277739173853078" y="6.277739173853078" fill="#5cd0c9" data-fill-palette-color="accent"></rect><rect width="125.81101772905544" height="125.81101772905544" x="12.55547834770615" y="7.105427357601002e-15" fill="#5cd0c9" opacity="0.5" data-fill-palette-color="accent"></rect></g><g transform="matrix(1,0,0,1,17.936397639580207,21.541898269860262)"><svg viewBox="0 0 102.49370079760118 95.28269953704107" height="95.28269953704107" width="102.49370079760118"><g><svg xmlns="http://www.w3.org/2000/svg" xmlns:xlink="http://www.w3.org/1999/xlink" version="1.1" x="0" y="0" viewBox="5 9.261 90 83.668" enable-background="new 0 0 100 100" xml:space="preserve" height="95.28269953704107" width="102.49370079760118" class="icon-g$-0" data-fill-palette-color="background" id="g$-0"><path d="M93.561 85.324h-2.334v-3.721c0-0.795-0.648-1.431-1.44-1.431h-4.021V51.977c0-0.703-0.574-1.287-1.285-1.287h-5.258c-0.711 0-1.291 0.584-1.291 1.287v28.197H67.445V52.223c0-0.711-0.578-1.291-1.288-1.291h-5.259c-0.709 0-1.282 0.58-1.282 1.291v27.951H40.388V51.977c0-0.703-0.577-1.287-1.289-1.287h-5.256c-0.712 0-1.289 0.584-1.289 1.287v28.197H22.067V52.223c0-0.711-0.577-1.291-1.29-1.291h-5.255c-0.713 0-1.289 0.58-1.289 1.291v27.951h-4.022c-0.793 0-1.435 0.637-1.435 1.43v3.722h-2.34C5.643 85.324 5 85.973 5 86.766v4.725c0 0.795 0.643 1.438 1.437 1.438h87.124c0.793 0 1.439-0.643 1.439-1.438v-4.725C95 85.973 94.354 85.324 93.561 85.324z" fill="#ffffff" data-fill-palette-color="background"></path><path d="M53.378 33.605v1.716c0 0.615-0.52 1.111-1.143 1.111h-3.822c-0.628 0-1.143-0.496-1.143-1.111v-1.54c-2.457-0.398-4.492-1.354-6.16-2.908-0.35-0.325-0.547-0.771-0.553-1.241-0.006-0.475 0.186-0.924 0.528-1.261l1.381-1.334c0.31-0.305 0.665-0.523 1.146-0.523 0.05 0 0.102 0.002 0.154 0.005 0.486 0.007 0.948 0.203 1.286 0.545 1.106 1.139 2.763 1.713 4.912 1.713 3.903 0 3.903-1.396 3.903-1.994 0-0.688 0-1.135-2.016-1.351l-3.107-0.267c-6.406-0.515-7.362-4.334-7.362-6.562 0-3.369 2.271-5.815 5.836-6.649V10.37c0-0.616 0.517-1.109 1.142-1.109h3.817c0.634 0 1.142 0.493 1.142 1.109v1.641c1.648 0.376 3.172 0.995 4.42 1.892 0.416 0.306 0.681 0.774 0.724 1.281 0.033 0.507-0.153 1.006-0.522 1.365l-1.34 1.304c-0.351 0.34-0.816 0.515-1.279 0.515-0.369 0-0.744-0.111-1.062-0.338-1.172-0.83-2.562-1.232-4.256-1.232-3.04 0-3.04 1.264-3.04 1.804 0 0.63 0 1.126 2.238 1.352l3.048 0.267c1.796 0.173 7.2 0.695 7.2 6.561C59.45 30.236 57.138 32.703 53.378 33.605z" fill="#ffffff" data-fill-palette-color="background"></path><g fill="#ffffff" data-fill-palette-color="background"><path d="M92.902 41.179L61.135 23.627c0.359 1.05 0.502 2.135 0.502 3.153 0 3.903-2.242 6.958-6.076 8.434v0.105c0 1.82-1.494 3.298-3.328 3.298H48.41c-1.764 0-3.211-1.366-3.32-3.086-2.1-0.601-3.939-1.628-5.477-3.062-0.781-0.729-1.235-1.759-1.245-2.82-0.013-1.07 0.423-2.109 1.194-2.851l1.369-1.331c0.278-0.271 0.569-0.494 0.877-0.67-0.311-0.278-0.594-0.581-0.854-0.908-0.26-0.325-0.489-0.672-0.693-1.035L6.949 41.26c-1.092 0.604-1.639 1.867-1.327 3.077 0.312 1.205 1.4 2.05 2.649 2.05h83.456c0.002 0 0.008 0 0.012 0 1.514 0 2.734-1.224 2.734-2.733C94.473 42.558 93.828 41.617 92.902 41.179z" fill="#ffffff" data-fill-palette-color="background"></path></g></svg></g></svg></g></svg></g></svg></g></svg></g><defs></defs></svg><rect width="395.52" height="99.84706750611805" fill="none" stroke="none" visibility="hidden"></rect></g></svg></g></svg>